<?xml version="1.0" encoding="UTF-8"?>
<svg id="a" data-name="Layer 1" xmlns="http://www.w3.org/2000/svg" viewBox="0 0 158.4 153.33">
  <defs>
    <style>
      .b, .c {
        fill: #5900c6;
      }

      .d {
        stroke-linecap: round;
        stroke-linejoin: round;
      }

      .d, .e {
        stroke: #000;
      }

      .f {
        fill: #242424;
      }

      .e {
        fill: none;
        stroke-miterlimit: 10;
      }

      .g {
        opacity: .9;
      }

      .h, .c {
        opacity: .1;
      }

      .i {
        fill: #1a1a1a;
      }

      .j {
        fill: #2e2e2e;
      }
    </style>
  </defs>
  <g>
    <path class="e" d="M3.95,12.99L26.25,3.79s4.71-1.92,10.08-1.92l110.95-.95c5.86,0,10.6,4.75,10.6,10.6v120.18c0,5.86.43,3.74-2.82,6.75l-2.94,2.2-12.83,10.53L3.95,12.99Z"/>
    <path class="f" d="M3.95,12.99L26.25,3.79s4.71-1.92,10.08-1.92l110.95-.95c5.86,0,10.6,4.75,10.6,10.6v120.18c0,5.86.43,3.74-2.82,6.75l-2.94,2.2-12.83,10.53L3.95,12.99Z"/>
  </g>
  <g>
    <rect class="j" x=".5" y="12.44" width="140.39" height="140.39" rx="5.5" ry="5.5"/>
    <path class="i" d="M135.39,12.94c2.76,0,5,2.24,5,5v129.39c0,2.76-2.24,5-5,5H6c-2.76,0-5-2.24-5-5V17.94c0-2.76,2.24-5,5-5h129.39M135.39,11.94H6c-3.31,0-6,2.69-6,6v129.39c0,3.31,2.69,6,6,6h129.39c3.31,0,6-2.69,6-6V17.94c0-3.31-2.69-6-6-6h0Z"/>
  </g>
  <polygon class="d" points="63.29 7.82 51.69 7.82 57.05 5.96 68.65 5.96 63.29 7.82"/>
  <polygon class="d" points="84.54 7.82 72.94 7.82 78.3 5.96 89.9 5.96 84.54 7.82"/>
  <polygon class="d" points="105.24 7.82 93.64 7.82 99 5.96 110.6 5.96 105.24 7.82"/>
  <rect class="g" x="3.15" y="16.24" width="134.19" height="128.95" rx="3.32" ry="3.32"/>
  <g>
    <g>
      <g class="h">
        <path class="b" d="M64.22,23.34c-5.44-.16-21.76,0-21.76,0-1.04-.08-4.41-4.55-3.37-4.48,0,0,29.14.06,29.49.23"/>
      </g>
      <path class="b" d="M65.31,24.62l3.26-2.61s2.36-.63,1.97.79-4.2,21.62-4.2,21.62l-3.01,2.3-1.82-1.11,3.8-20.99Z"/>
      <polygon class="b" points="39.33 24.38 35.61 44.74 33 46.72 31.02 44.74 35.17 22.24 36.64 21.1 39.33 24.38"/>
      <polygon class="c" points="45.69 46.2 37.38 46.2 34.74 48.57 36.45 50.51 44.98 50.51 46.74 48.35 45.69 46.2"/>
      <polygon class="c" points="50.92 46.42 49.12 48.13 50.17 50.51 58.09 50.51 60.94 48.13 59.41 46.2 50.92 46.42"/>
      <polygon class="b" points="62.7 50.02 60.24 51.48 56.15 72.19 59.43 75.7 60.94 74.21 64.9 51.96 62.7 50.02"/>
      <path class="c" d="M54.52,67.66l1.63-7.43-3.12-7.43s-1.19-1.23-1.71,1.01c-.53,2.24-1.06,5.45-1.06,5.45,0,0,3.69,8.66,4.27,8.4Z"/>
      <polygon class="c" points="44.15 55.12 47.4 50.86 49.12 54.77 45.95 71.13 41.16 71.13 44.15 55.12"/>
      <polygon class="c" points="42.04 52.71 34.43 62.47 32.76 70.69 33.77 71.13 41.16 60.75 42.04 52.71"/>
      <polygon class="b" points="32.54 50.02 29.55 52.09 25.11 74.74 26.16 75.4 30.38 71.66 34.47 51.48 32.54 50.02"/>
      <polygon class="c" points="27.44 77.42 32.05 72.98 53.86 73.37 57.43 76.8 56.68 78.17 28.1 78.17 27.44 77.42"/>
      <path class="b" d="M41.2,28.04l-1.63,7.43,3.12,7.43s1.19,1.23,1.71-1.01,1.06-5.45,1.06-5.45c0,0-3.69-8.66-4.27-8.4Z"/>
      <polygon class="c" points="51.58 41.51 48.32 45.77 46.61 41.86 49.77 25.5 54.57 25.5 51.58 41.51"/>
      <polygon class="b" points="53.69 44.22 61.29 34.46 62.97 26.23 61.95 25.79 54.57 36.17 53.69 44.22"/>
    </g>
    <g>
      <g class="h">
        <path class="b" d="M111.13,24.08c-5.44-.16-21.76,0-21.76,0-1.04-.08-4.41-4.55-3.37-4.48,0,0,29.14.06,29.49.23"/>
      </g>
      <path class="c" d="M112.22,25.35l3.26-2.61s2.36-.63,1.97.79-4.2,21.62-4.2,21.62l-3.01,2.3-1.82-1.11,3.8-20.99Z"/>
      <polygon class="c" points="86.24 25.11 82.52 45.47 79.91 47.45 77.93 45.47 82.09 22.98 83.55 21.84 86.24 25.11"/>
      <polygon class="c" points="92.6 46.93 84.29 46.93 81.65 49.31 83.36 51.24 91.89 51.24 93.65 49.09 92.6 46.93"/>
      <polygon class="c" points="97.83 47.15 96.03 48.87 97.08 51.24 105 51.24 107.85 48.87 106.32 46.93 97.83 47.15"/>
      <polygon class="c" points="109.61 50.76 107.15 52.21 103.06 72.92 106.34 76.44 107.85 74.95 111.81 52.69 109.61 50.76"/>
      <path class="c" d="M101.43,68.39l1.63-7.43-3.12-7.43s-1.19-1.23-1.71,1.01c-.53,2.24-1.06,5.45-1.06,5.45,0,0,3.69,8.66,4.27,8.4Z"/>
      <polygon class="b" points="91.06 55.86 94.31 51.59 96.03 55.51 92.86 71.87 88.07 71.87 91.06 55.86"/>
      <polygon class="c" points="88.95 53.44 81.34 63.2 79.67 71.43 80.68 71.87 88.07 61.49 88.95 53.44"/>
      <polygon class="c" points="79.45 50.76 76.46 52.83 72.02 75.47 73.07 76.13 77.29 72.39 81.38 52.21 79.45 50.76"/>
      <polygon class="c" points="74.35 78.15 78.97 73.71 100.78 74.11 104.34 77.54 103.59 78.9 75.01 78.9 74.35 78.15"/>
      <path class="b" d="M88.11,28.78l-1.63,7.43,3.12,7.43s1.19,1.23,1.71-1.01c.53-2.24,1.06-5.45,1.06-5.45,0,0-3.69-8.66-4.27-8.4Z"/>
      <polygon class="c" points="98.49 42.24 95.23 46.51 93.52 42.59 96.68 26.24 101.48 26.24 98.49 42.24"/>
      <polygon class="b" points="100.6 44.95 108.2 35.19 109.88 26.97 108.86 26.53 101.48 36.91 100.6 44.95"/>
    </g>
    <g>
      <g class="h">
        <path class="b" d="M108.42,86.08c-5.44-.16-21.76,0-21.76,0-1.04-.08-4.41-4.55-3.37-4.48,0,0,29.14.06,29.49.23"/>
      </g>
      <path class="c" d="M109.52,87.36l3.26-2.61s2.36-.63,1.97.79-4.2,21.62-4.2,21.62l-3.01,2.3-1.82-1.11,3.8-20.99Z"/>
      <polygon class="b" points="83.54 87.12 79.82 107.47 77.2 109.45 75.22 107.47 79.38 84.98 80.85 83.84 83.54 87.12"/>
      <polygon class="c" points="89.89 108.94 81.58 108.94 78.94 111.31 80.66 113.25 89.19 113.25 90.95 111.09 89.89 108.94"/>
      <polygon class="c" points="95.13 109.16 93.32 110.87 94.38 113.25 102.29 113.25 105.15 110.87 103.61 108.94 95.13 109.16"/>
      <polygon class="c" points="106.91 112.76 104.45 114.21 100.36 134.93 103.63 138.44 105.15 136.95 109.11 114.7 106.91 112.76"/>
      <path class="c" d="M98.73,130.4l1.63-7.43-3.12-7.43s-1.19-1.23-1.71,1.01c-.53,2.24-1.06,5.45-1.06,5.45,0,0,3.69,8.66,4.27,8.4Z"/>
      <polygon class="c" points="88.35 117.86 91.61 113.6 93.32 117.51 90.16 133.87 85.36 133.87 88.35 117.86"/>
      <polygon class="c" points="86.24 115.45 78.64 125.21 76.97 133.43 77.98 133.87 85.36 123.49 86.24 115.45"/>
      <polygon class="b" points="76.75 112.76 73.76 114.83 69.31 137.48 70.37 138.14 74.59 134.4 78.68 114.21 76.75 112.76"/>
      <polygon class="b" points="71.64 140.16 76.26 135.72 98.07 136.11 101.63 139.54 100.89 140.91 72.3 140.91 71.64 140.16"/>
      <path class="c" d="M85.41,90.78l-1.63,7.43,3.12,7.43s1.19,1.23,1.71-1.01c.53-2.24,1.06-5.45,1.06-5.45,0,0-3.69-8.66-4.27-8.4Z"/>
      <polygon class="c" points="95.78 104.25 92.53 108.51 90.82 104.6 93.98 88.24 98.77 88.24 95.78 104.25"/>
      <polygon class="c" points="97.89 106.96 105.5 97.2 107.17 88.97 106.16 88.53 98.77 98.91 97.89 106.96"/>
    </g>
    <g>
      <g class="h">
        <path class="b" d="M61.46,85.81c-5.44-.16-21.76,0-21.76,0-1.04-.08-4.41-4.55-3.37-4.48,0,0,29.14.06,29.49.23"/>
      </g>
      <path class="c" d="M62.56,87.08l3.26-2.61s2.36-.63,1.97.79-4.2,21.62-4.2,21.62l-3.01,2.3-1.82-1.11,3.8-20.99Z"/>
      <polygon class="b" points="36.58 86.84 32.86 107.2 30.25 109.18 28.27 107.2 32.42 84.7 33.89 83.57 36.58 86.84"/>
      <polygon class="b" points="42.93 108.66 34.62 108.66 31.99 111.03 33.7 112.97 42.23 112.97 43.99 110.81 42.93 108.66"/>
      <polygon class="b" points="48.17 108.88 46.36 110.59 47.42 112.97 55.33 112.97 58.19 110.59 56.65 108.66 48.17 108.88"/>
      <polygon class="c" points="59.95 112.48 57.49 113.94 53.4 134.65 56.68 138.16 58.19 136.67 62.15 114.42 59.95 112.48"/>
      <path class="b" d="M51.77,130.12l1.63-7.43-3.12-7.43s-1.19-1.23-1.71,1.01c-.53,2.24-1.06,5.45-1.06,5.45,0,0,3.69,8.66,4.27,8.4Z"/>
      <polygon class="c" points="41.4 117.59 44.65 113.32 46.36 117.23 43.2 133.59 38.41 133.59 41.4 117.59"/>
      <polygon class="c" points="39.29 115.17 31.68 124.93 30.01 133.15 31.02 133.59 38.41 123.21 39.29 115.17"/>
      <polygon class="b" points="29.79 112.48 26.8 114.55 22.36 137.2 23.41 137.86 27.63 134.12 31.72 113.94 29.79 112.48"/>
      <polygon class="c" points="24.69 139.88 29.3 135.44 51.11 135.83 54.68 139.26 53.93 140.63 25.35 140.63 24.69 139.88"/>
      <path class="c" d="M38.45,90.5l-1.63,7.43,3.12,7.43s1.19,1.23,1.71-1.01,1.06-5.45,1.06-5.45c0,0-3.69-8.66-4.27-8.4Z"/>
      <polygon class="c" points="48.83 103.97 45.57 108.23 43.86 104.32 47.02 87.96 51.82 87.96 48.83 103.97"/>
      <polygon class="b" points="50.94 106.68 58.54 96.92 60.21 88.69 59.2 88.26 51.82 98.63 50.94 106.68"/>
    </g>
  </g>
</svg>