<?xml version="1.0" encoding="UTF-8"?>
<svg xmlns="http://www.w3.org/2000/svg" version="1.1" viewBox="0 0 1700 1700">
  <!-- Generator: Adobe Illustrator 30.3.0, SVG Export Plug-In . SVG Version: 2.1.1 Build 22)  -->
  <defs>
    <style>
      .st0 {
        fill: #fff;
      }
    </style>
  </defs>
  <rect width="1700" height="1700"/>
  <g id="Layer_2">
    <path class="st0" d="M210.7,500.2c9.2,104,52.7,198.2,122.4,265.2l60.1,57.8,171.3-164.6c0-.4,0-.8,0-1.1.2-2.2.3-4.4.6-6.6,0,0,0,0,0,0,3.7-39.1,14.8-76.7,32.4-111.1L297.5,251.4c-12.1-2.7-24.3-3.4-36.5-2-40.4,74.6-58.2,162.1-50.3,250.9Z"/>
    <path class="st0" d="M851.6,879.4c0-1.4,0-2.8-.1-4.2,0,0,0,0,0,0,0-1.5-.2-3-.3-4.5,0-.5,0-.9-.1-1.4,0-1-.2-2-.3-3.1,0-.6-.1-1.1-.2-1.7-.1-.9-.2-1.9-.3-2.8,0-.6-.2-1.1-.2-1.7-.1-.9-.3-1.9-.4-2.8,0-.6-.2-1.1-.3-1.7-.2-1-.4-2-.6-3,0-.5-.2-.9-.3-1.4-.3-1.5-.6-2.9-.9-4.4,0,0,0,0,0,0l-136.8-186.7c-10.3-14.1-24.6-22.6-40.1-23.9-.8,0-1.7-.1-2.5-.1-.2,0-.3,0-.5,0-.8,0-1.6,0-2.4,0-.1,0-.3,0-.4,0-.7,0-1.5,0-2.2.1-.1,0-.3,0-.4,0-.8,0-1.6.2-2.4.3-.2,0-.4,0-.5,0-.8.1-1.6.2-2.4.4,0,0-.1,0-.2,0-.7.1-1.5.3-2.2.5-.2,0-.4,0-.6.1-.7.2-1.5.4-2.2.6-.2,0-.4.1-.5.2-.6.2-1.3.4-1.9.7-.2,0-.3.1-.5.2-.7.3-1.4.6-2.2.9-.2,0-.4.2-.6.3-.7.3-1.4.6-2.1,1,0,0,0,0,0,0,0,0,0,0-.1,0-.8.4-1.6.8-2.3,1.3,0,0,0,0-.1,0-1.6.9-3.1,1.9-4.7,3,0,0,0,0,0,0,0,0-.2.1-.2.2-.6.5-1.3.9-1.9,1.4-.2.1-.4.3-.6.4-.5.4-1.1.9-1.6,1.3-.2.2-.4.3-.5.5-.7.6-1.4,1.2-2,1.9l-34.8,33.5-33,31.7h0s-208.9,200.7-208.9,200.7c-69.7,67-113.2,161.2-122.4,265.2-7.9,88.8,9.9,176.3,50.3,250.9,12.2,1.3,24.4.7,36.5-2l246.3-236.7h0s283.1-272,283.1-272c1.9-7.4,3.2-15.1,4-22.9l.4-3.5c0-.4,0-.9.1-1.3,0-.7,0-1.5.1-2.2,0-.8,0-1.6.1-2.5,0-.7,0-1.4,0-2.1,0-.7,0-1.3,0-2,0-.2,0-.3,0-.5,0-2,0-4.1,0-6.1,0,0,0,0,0-.1Z"/>
    <path class="st0" d="M871.6,954.2l-267.2,256.8c4.9,66.1,33.7,127.4,81.8,173.6,50.3,48.4,116.5,75.1,186.4,75.1s135.6-26.5,185.8-74.5c47.9-45.8,76.9-106.8,82.2-172.5l-269-258.5Z"/>
    <path class="st0" d="M639.8,546c-12.3,21.3-21.7,44.3-27.7,68.1,0,0,.2-.1.2-.2.8-.6,1.6-1.2,2.5-1.8.2-.1.4-.2.5-.4.9-.6,1.9-1.2,2.8-1.8,0,0,.2-.1.3-.2.9-.5,1.7-1.1,2.6-1.6.2-.1.4-.2.6-.4,1-.5,1.9-1.1,2.9-1.6,0,0,.1,0,.2-.1.9-.5,1.8-.9,2.7-1.4.2-.1.5-.2.7-.3,1-.5,2-.9,3-1.3,0,0,.1,0,.2,0,.9-.4,1.9-.8,2.8-1.1.3,0,.5-.2.8-.3,1-.4,2-.7,3-1.1,0,0,0,0,0,0,1-.3,2-.6,3-.9.3,0,.6-.2.8-.2.9-.3,1.8-.5,2.8-.7.1,0,.2,0,.3,0,1-.2,2-.5,3-.7.3,0,.6-.1.9-.2.9-.2,1.8-.3,2.6-.5.2,0,.4,0,.5,0,1-.2,2-.3,3.1-.4.3,0,.6,0,.9-.1.9,0,1.7-.2,2.6-.3.2,0,.4,0,.6,0,1,0,2.1-.1,3.1-.2.3,0,.6,0,.9,0,.9,0,1.7,0,2.6,0,.2,0,.3,0,.5,0s.1,0,.2,0c1.1,0,2.3,0,3.4,0,.3,0,.5,0,.8,0,1.2,0,2.3.1,3.5.2,16.2,1.4,31.3,7,44.6,16.2,4.9,3.4,9.5,7.3,13.9,11.7,1.2,1.2,2.4,2.5,3.6,3.9,2.4,2.6,4.6,5.4,6.8,8.4l128.6,175.5,128.6-175.5c17.2-23.5,41.7-37.8,68.9-40.1,1.3-.1,2.7-.2,4-.2.2,0,.4,0,.6,0,1.3,0,2.5,0,3.8,0,.2,0,.5,0,.7,0,1.3,0,2.5,0,3.8.1.2,0,.4,0,.6,0,1.3,0,2.6.2,3.9.3,0,0,0,0,0,0,1.3.1,2.6.3,3.9.5.2,0,.4,0,.6,0,1.2.2,2.4.4,3.7.7.2,0,.5,0,.7.1,1.2.3,2.4.5,3.6.8.2,0,.4.1.6.2,1.2.3,2.5.7,3.7,1,0,0,0,0,0,0,1.2.4,2.4.8,3.6,1.2.2,0,.4.1.6.2,1.2.4,2.3.9,3.4,1.3.2,0,.5.2.7.3,1.1.5,2.3,1,3.4,1.5.2,0,.4.2.6.3,1.2.6,2.3,1.1,3.5,1.7,0,0,0,0,.1,0,1.1.6,2.2,1.2,3.3,1.9.2.1.4.2.5.3,1.1.6,2.1,1.3,3.2,2,.2.1.4.3.6.4,1.1.7,2.1,1.4,3.1,2.1.2.1.4.3.5.4,1.1.8,2.1,1.6,3.2,2.4,0,0,0,0,0,0-1.8-7.5-4-14.9-6.5-22.2,0-.1,0-.3-.1-.4-.3-.9-.6-1.7-.9-2.6-5-14.1-11.2-27.7-18.6-41l-2.7-4.8c-12.3-21-27.6-40.5-45.5-57.8-50.4-48.6-116.7-75.4-186.7-75.4s-135.8,26.6-186.1,74.8c-17.4,16.7-32.2,35.3-44.4,55.4l-2.3,4.1Z"/>
    <path class="st0" d="M1512.8,1182.6c-9.2-104-52.7-198.2-122.4-265.2l-36.2-34.8h0s-120.6-115.9-120.6-115.9l-119.9-115.2c-11.7-11.2-26.3-16.7-41.1-15.4-15.5,1.3-29.8,9.8-40.1,23.9l-136.8,186.7c-.3,1.5-.6,2.9-.9,4.4,0,.5-.2,1-.3,1.4-.2,1-.4,2-.6,3,0,.6-.2,1.1-.3,1.7-.2.9-.3,1.9-.4,2.8,0,.6-.2,1.2-.2,1.7-.1.9-.2,1.9-.3,2.8,0,.6-.1,1.1-.2,1.7-.1,1-.2,2-.3,3.1,0,.5,0,.9-.1,1.4-.2,2.9-.4,5.8-.4,8.8,0,0,0,0,0,0,0,2.1,0,4.1,0,6.2,0,.1,0,.3,0,.4,0,.7,0,1.3,0,2,0,.7,0,1.4,0,2.1,0,.8,0,1.6.1,2.5,0,.7,0,1.5.1,2.2,0,.4,0,.8.1,1.3l.4,3.6c.8,7.8,2.2,15.5,4,22.9l285,273.8h0s244.5,234.9,244.5,234.9c12.1,2.7,24.3,3.4,36.5,2,40.4-74.6,58.2-162.1,50.3-250.9Z"/>
    <path class="st0" d="M1454.1,251.4l-304.4,292.5c17.7,35.8,28.3,74.9,31,115.5,0,.4,0,.7,0,1.1l138.1,132.7,35.3,33.9,64.2-61.7c69.7-67,113.2-161.2,122.4-265.2,7.9-88.8-9.9-176.3-50.3-250.9-12.2-1.3-24.4-.7-36.5,2Z"/>
    <path d="M1580.7,503.8c7.6-85.7-6.8-170.5-41-245.4l2.3.4-16.8-29.4c-7.5-13.7-15.6-27-24.5-39.8l-28,19.3c-11.3.4-22.6,2.1-33.8,5.1l-5,1.3-304.9,293c-12.1-17.9-26.1-34.7-42-50-57.9-55.8-134-86.6-214.5-86.6s-156,30.5-213.8,86c-15,14.4-28.4,30.2-40.1,47L317.6,215.3l-5-1.3c-11.2-3-22.5-4.7-33.8-5.1l-28-19.3c-8.9,12.8-17,26.1-24.5,39.8l-16.8,29.4,2.3-.4c-34.2,74.9-48.6,159.7-41,245.4,10.1,113.7,57.9,216.8,134.5,290.5l59,56.7-39.1,37.6c-76.7,73.7-124.5,176.9-134.5,290.5-7.6,85.7,6.8,170.5,41,245.4l-2.3-.4,16.8,29.4c7.5,13.7,15.6,27,24.5,39.9l28-19.3c11.3-.4,22.6-2.1,33.8-5.1l5-1.3,231.1-222.1c11.4,63.8,42.5,122.3,89.9,168,57.8,55.6,133.8,86.2,214.1,86.2s155.7-30.4,213.5-85.6c47.4-45.3,78.6-103.5,90.3-167l229.5,220.6,5,1.3c11.2,3,22.5,4.7,33.8,5.1l28,19.3c8.9-12.8,17-26.1,24.5-39.9l16.8-29.4-2.3.4c34.2-74.9,48.6-159.7,41-245.4-10.1-113.7-57.9-216.8-134.5-290.5l-35-33.7,63.1-60.6c76.7-73.7,124.5-176.9,134.5-290.5ZM639.8,546l2.3-4.1c12.1-20.1,27-38.8,44.4-55.4,50.3-48.2,116.4-74.8,186.1-74.8s136.3,26.8,186.7,75.4c18,17.3,33.2,36.8,45.5,57.8l2.7,4.8c7.4,13.3,13.6,27,18.6,41,.3.9.6,1.7.9,2.6,0,.1,0,.3.1.4,2.5,7.3,4.7,14.7,6.5,22.2,0,0,0,0,0,0-1.1-.8-2.1-1.6-3.2-2.4-.2-.1-.4-.3-.5-.4-1-.7-2.1-1.4-3.1-2.1-.2-.1-.4-.3-.6-.4-1.1-.7-2.1-1.3-3.2-2-.2-.1-.4-.2-.5-.3-1.1-.6-2.2-1.3-3.3-1.9,0,0,0,0-.1,0-1.1-.6-2.3-1.2-3.5-1.7-.2,0-.4-.2-.6-.3-1.1-.5-2.2-1-3.4-1.5-.2,0-.5-.2-.7-.3-1.1-.5-2.3-.9-3.4-1.3-.2,0-.4-.1-.6-.2-1.2-.4-2.4-.8-3.6-1.2,0,0,0,0,0,0-1.2-.4-2.5-.7-3.7-1-.2,0-.4-.1-.6-.2-1.2-.3-2.4-.6-3.6-.8-.2,0-.5,0-.7-.1-1.2-.2-2.4-.5-3.7-.7-.2,0-.4,0-.6,0-1.3-.2-2.6-.4-3.9-.5,0,0,0,0,0,0-1.3-.1-2.6-.2-3.9-.3-.2,0-.4,0-.6,0-1.2,0-2.5-.1-3.8-.1-.2,0-.5,0-.7,0-1.3,0-2.5,0-3.8,0-.2,0-.4,0-.6,0-1.3,0-2.6.1-4,.2-27.2,2.4-51.7,16.6-68.9,40.1l-128.6,175.5-128.6-175.5c-2.2-2.9-4.4-5.7-6.8-8.4-1.2-1.3-2.4-2.6-3.6-3.9-4.3-4.4-9-8.3-13.9-11.7-13.3-9.2-28.5-14.8-44.6-16.2-1.2-.1-2.3-.2-3.5-.2-.3,0-.5,0-.8,0-1.1,0-2.3,0-3.4,0,0,0-.1,0-.2,0-.2,0-.3,0-.5,0-.9,0-1.7,0-2.6,0-.3,0-.6,0-.9,0-1,0-2.1.1-3.1.2-.2,0-.4,0-.6,0-.9,0-1.7.2-2.6.3-.3,0-.6,0-.9.1-1,.1-2,.3-3.1.4-.2,0-.4,0-.5,0-.9.1-1.8.3-2.6.5-.3,0-.6.1-.9.2-1,.2-2,.4-3,.7-.1,0-.2,0-.3,0-.9.2-1.9.5-2.8.7-.3,0-.6.2-.8.2-1,.3-2,.6-3,.9,0,0,0,0,0,0-1,.3-2,.7-3,1.1-.3,0-.5.2-.8.3-1,.4-1.9.7-2.8,1.1,0,0-.1,0-.2,0-1,.4-2,.9-3,1.3-.2.1-.5.2-.7.3-.9.4-1.8.9-2.7,1.4,0,0-.1,0-.2.1-1,.5-1.9,1-2.9,1.6-.2.1-.4.2-.6.4-.9.5-1.7,1-2.6,1.6,0,0-.2.1-.3.2-.9.6-1.9,1.2-2.8,1.8-.2.1-.4.2-.5.4-.8.6-1.7,1.2-2.5,1.8,0,0-.2.1-.2.2,6.1-23.8,15.4-46.8,27.7-68.1ZM210.7,500.2c-7.9-88.8,9.9-176.3,50.3-250.9,12.2-1.3,24.4-.7,36.5,2l300.1,288.4c-17.6,34.4-28.7,72-32.4,111.1,0,0,0,0,0,0-.2,2.2-.4,4.4-.6,6.6,0,.4,0,.8,0,1.1l-171.3,164.6-60.1-57.8c-69.7-67-113.2-161.2-122.4-265.2ZM317.3,1431.5c-12.1,2.7-24.3,3.4-36.5,2-40.4-74.6-58.2-162.1-50.3-250.9,9.2-104,52.7-198.2,122.4-265.2l208.9-200.7h0s33-31.7,33-31.7l34.8-33.5c.7-.6,1.4-1.3,2-1.9.2-.2.4-.3.5-.5.5-.5,1.1-.9,1.6-1.3.2-.1.4-.3.6-.4.6-.5,1.3-1,1.9-1.4,0,0,.2-.1.2-.2,0,0,0,0,0,0,1.5-1.1,3.1-2.1,4.7-3,0,0,0,0,.1,0,.8-.4,1.6-.9,2.3-1.3,0,0,0,0,.1,0,0,0,0,0,0,0,.7-.4,1.4-.7,2.1-1,.2,0,.4-.2.6-.3.7-.3,1.4-.6,2.2-.9.2,0,.3-.1.5-.2.6-.2,1.3-.5,1.9-.7.2,0,.4-.1.5-.2.7-.2,1.5-.4,2.2-.6.2,0,.4,0,.6-.1.7-.2,1.5-.4,2.2-.5,0,0,.1,0,.2,0,.8-.2,1.6-.3,2.4-.4.2,0,.4,0,.5,0,.8-.1,1.6-.2,2.4-.3.1,0,.3,0,.4,0,.7,0,1.5,0,2.2-.1.1,0,.3,0,.4,0,.8,0,1.6,0,2.4,0,.2,0,.3,0,.5,0,.8,0,1.7,0,2.5.1,15.5,1.3,29.8,9.8,40.1,23.9l136.8,186.7s0,0,0,0c.3,1.4.6,2.9.9,4.4,0,.5.2.9.3,1.4.2,1,.4,2,.6,3,0,.5.2,1.1.3,1.7.2.9.3,1.9.4,2.8,0,.6.2,1.1.2,1.7.1.9.2,1.9.3,2.8,0,.6.1,1.1.2,1.7.1,1,.2,2,.3,3.1,0,.5,0,.9.1,1.4.1,1.5.2,3,.3,4.5,0,0,0,0,0,0,0,1.4.1,2.8.1,4.2,0,0,0,0,0,.1,0,2,0,4.1,0,6.1,0,.2,0,.3,0,.5,0,.7,0,1.3,0,2,0,.7,0,1.4,0,2.1,0,.8,0,1.6-.1,2.5,0,.7,0,1.5-.1,2.2,0,.4,0,.9-.1,1.3l-.4,3.5c-.8,7.8-2.2,15.5-4,22.9l-283.1,272h0s-246.3,236.7-246.3,236.7ZM1058.4,1385.1c-50.3,48.1-116.2,74.5-185.8,74.5s-136-26.7-186.4-75.1c-48-46.2-76.9-107.6-81.8-173.6l267.2-256.8,269,258.5c-5.3,65.7-34.3,126.6-82.2,172.5ZM1390.4,917.4c69.7,67,113.2,161.2,122.4,265.2,7.9,88.8-9.9,176.3-50.3,250.9-12.2,1.3-24.4.7-36.5-2l-244.5-234.9h0s-285-273.8-285-273.8c-1.9-7.4-3.2-15.1-4-22.9l-.4-3.6c0-.4,0-.8-.1-1.3,0-.7,0-1.5-.1-2.2,0-.8-.1-1.6-.1-2.5,0-.7,0-1.4,0-2.1,0-.7,0-1.3,0-2,0-.1,0-.3,0-.4,0-2.1,0-4.1,0-6.2,0,0,0,0,0,0,0-2.9.2-5.8.4-8.8,0-.5,0-.9.1-1.4,0-1,.2-2,.3-3.1,0-.6.1-1.1.2-1.7.1-.9.2-1.9.3-2.8,0-.6.2-1.2.2-1.7.1-.9.3-1.9.4-2.8,0-.6.2-1.1.3-1.7.2-1,.4-2,.6-3,0-.5.2-1,.3-1.4.3-1.5.6-2.9.9-4.4l136.8-186.7c10.3-14.1,24.6-22.6,40.1-23.9,14.8-1.3,29.4,4.2,41.1,15.4l119.9,115.2,120.6,115.9h0s36.2,34.8,36.2,34.8ZM1418.4,765.4l-64.2,61.7-35.3-33.9-138.1-132.7c0-.4,0-.7,0-1.1-2.7-40.6-13.4-79.8-31-115.5l304.4-292.5c12.1-2.7,24.3-3.4,36.5-2,40.4,74.6,58.2,162.1,50.3,250.9-9.2,104-52.7,198.2-122.4,265.2Z"/>
  </g>
</svg>