<?xml version="1.0" encoding="UTF-8"?>
<svg id="a" data-name="Layer 1" xmlns="http://www.w3.org/2000/svg" viewBox="0 0 158.38 153.33">
  <defs>
    <style>
      .b, .c, .d {
        fill: #7d30ff;
      }

      .e {
        fill: #1c1c1c;
      }

      .c, .f {
        opacity: .1;
      }

      .d {
        opacity: .58;
      }

      .g, .h {
        stroke-linecap: round;
        stroke-linejoin: round;
      }

      .g, .i {
        stroke: #000;
      }

      .h {
        stroke: #333;
      }

      .h, .j {
        fill: #333;
      }

      .i {
        fill: none;
        stroke-miterlimit: 10;
      }

      .k {
        opacity: .9;
      }

      .l {
        opacity: .61;
      }

      .m {
        fill: #1f1f1f;
      }
    </style>
  </defs>
  <g>
    <path class="i" d="M3.66,13.06L26.25,3.79s4.71-1.92,10.08-1.92l110.95-.95c5.86,0,10.6,4.75,10.6,10.6v120.18c0,2.1.07,4.12-3.54,6.8l-4.49,3.49-11.56,9.87L3.66,13.06Z"/>
    <path class="m" d="M3.66,13.06L26.25,3.79s4.71-1.92,10.08-1.92l110.95-.95c5.86,0,10.6,4.75,10.6,10.6v120.18c0,2.1.07,4.12-3.54,6.8l-4.49,3.49-11.56,9.87L3.66,13.06Z"/>
  </g>
  <g>
    <rect class="e" x=".5" y="12.44" width="140.39" height="140.39" rx="5.5" ry="5.5"/>
    <path class="j" d="M135.39,12.94c2.76,0,5,2.24,5,5v129.39c0,2.76-2.24,5-5,5H6c-2.76,0-5-2.24-5-5V17.94c0-2.76,2.24-5,5-5h129.39M135.39,11.94H6c-3.31,0-6,2.69-6,6v129.39c0,3.31,2.69,6,6,6h129.39c3.31,0,6-2.69,6-6V17.94c0-3.31-2.69-6-6-6h0Z"/>
  </g>
  <polygon class="g" points="63.29 7.82 51.69 7.82 57.05 5.96 68.65 5.96 63.29 7.82"/>
  <polygon class="g" points="84.54 7.82 72.94 7.82 78.3 5.96 89.9 5.96 84.54 7.82"/>
  <polygon class="g" points="105.24 7.82 93.64 7.82 99 5.96 110.6 5.96 105.24 7.82"/>
  <rect class="h" x="4.29" y="45.24" width="132.83" height="53.71" rx="2.65" ry="2.65"/>
  <rect class="k" x="4.27" y="45.24" width="132.85" height="53.37" rx="3.32" ry="3.32"/>
  <g>
    <circle class="d" cx="71.96" cy="67.36" r="1.82"/>
    <circle class="d" cx="70.19" cy="77.21" r="1.82"/>
    <g class="l">
      <g class="f">
        <path class="b" d="M35.18,55.62c-3.59-.11-14.36,0-14.36,0-.68-.05-2.91-3-2.23-2.96,0,0,19.23.04,19.46.15"/>
      </g>
      <path class="b" d="M35.9,56.46l2.15-1.72s1.56-.42,1.3.52-2.77,14.27-2.77,14.27l-1.99,1.52-1.2-.73,2.51-13.85Z"/>
      <polygon class="b" points="18.76 56.3 16.3 69.73 14.58 71.04 13.27 69.73 16.02 54.89 16.98 54.14 18.76 56.3"/>
      <polygon class="c" points="22.95 70.7 17.47 70.7 15.73 72.26 16.86 73.54 22.49 73.54 23.65 72.12 22.95 70.7"/>
      <polygon class="c" points="26.41 70.84 25.22 71.97 25.91 73.54 31.13 73.54 33.02 71.97 32 70.7 26.41 70.84"/>
      <polygon class="b" points="34.18 73.22 32.56 74.18 29.86 87.84 32.02 90.16 33.02 89.18 35.63 74.5 34.18 73.22"/>
      <path class="c" d="M28.78,84.86l1.07-4.9-2.06-4.9s-.78-.81-1.13.67-.7,3.6-.7,3.6c0,0,2.44,5.72,2.81,5.54Z"/>
      <polygon class="c" points="21.94 76.59 24.08 73.77 25.22 76.35 23.13 87.15 19.96 87.15 21.94 76.59"/>
      <polygon class="c" points="20.54 74.99 15.52 81.43 14.42 86.86 15.09 87.15 19.96 80.3 20.54 74.99"/>
      <polygon class="b" points="14.28 73.22 12.3 74.58 9.37 89.53 10.07 89.96 12.86 87.5 15.55 74.18 14.28 73.22"/>
      <polygon class="c" points="10.91 91.3 13.96 88.37 28.35 88.63 30.7 90.89 30.21 91.79 11.35 91.79 10.91 91.3"/>
      <path class="b" d="M19.99,58.72l-1.07,4.9,2.06,4.9s.78.81,1.13-.67.7-3.6.7-3.6c0,0-2.44-5.72-2.81-5.54Z"/>
      <polygon class="c" points="26.84 67.6 24.69 70.42 23.56 67.83 25.65 57.04 28.81 57.04 26.84 67.6"/>
      <polygon class="b" points="28.23 69.39 33.25 62.95 34.35 57.52 33.69 57.23 28.81 64.08 28.23 69.39"/>
    </g>
    <g class="l">
      <g class="f">
        <path class="b" d="M128.53,55.98c-3.59-.11-14.36,0-14.36,0-.68-.05-2.91-3-2.23-2.96,0,0,19.23.04,19.46.15"/>
      </g>
      <path class="c" d="M129.26,56.82l2.15-1.72s1.56-.42,1.3.52-2.77,14.27-2.77,14.27l-1.99,1.52-1.2-.73,2.51-13.85Z"/>
      <polygon class="b" points="112.11 56.67 109.66 70.1 107.93 71.41 106.63 70.1 109.37 55.26 110.34 54.51 112.11 56.67"/>
      <polygon class="c" points="116.31 71.06 110.82 71.06 109.08 72.63 110.21 73.91 115.84 73.91 117 72.49 116.31 71.06"/>
      <polygon class="c" points="119.76 71.21 118.57 72.34 119.27 73.91 124.49 73.91 126.37 72.34 125.36 71.06 119.76 71.21"/>
      <polygon class="c" points="127.53 73.59 125.91 74.55 123.21 88.21 125.37 90.53 126.37 89.55 128.99 74.87 127.53 73.59"/>
      <path class="c" d="M122.14,85.22l1.07-4.9-2.06-4.9s-.78-.81-1.13.67-.7,3.6-.7,3.6c0,0,2.44,5.72,2.81,5.54Z"/>
      <polygon class="c" points="115.29 76.95 117.44 74.14 118.57 76.72 116.48 87.52 113.32 87.52 115.29 76.95"/>
      <polygon class="c" points="113.9 75.36 108.88 81.8 107.78 87.23 108.44 87.52 113.32 80.67 113.9 75.36"/>
      <polygon class="b" points="107.63 73.59 105.66 74.95 102.73 89.89 103.42 90.33 106.21 87.86 108.91 74.55 107.63 73.59"/>
      <polygon class="b" points="104.27 91.66 107.31 88.73 121.7 88.99 124.05 91.26 123.56 92.16 104.7 92.16 104.27 91.66"/>
      <path class="c" d="M113.35,59.08l-1.07,4.9,2.06,4.9s.78.81,1.13-.67.7-3.6.7-3.6c0,0-2.44-5.72-2.81-5.54Z"/>
      <polygon class="c" points="120.19 67.97 118.05 70.78 116.91 68.2 119 57.41 122.17 57.41 120.19 67.97"/>
      <polygon class="c" points="121.59 69.76 126.61 63.32 127.71 57.89 127.04 57.6 122.17 64.45 121.59 69.76"/>
    </g>
    <g class="l">
      <g class="f">
        <path class="b" d="M97.55,55.8c-3.59-.11-14.36,0-14.36,0-.68-.05-2.91-3-2.23-2.96,0,0,19.23.04,19.46.15"/>
      </g>
      <path class="c" d="M98.27,56.64l2.15-1.72s1.56-.42,1.3.52-2.77,14.27-2.77,14.27l-1.99,1.52-1.2-.73,2.51-13.85Z"/>
      <polygon class="b" points="81.13 56.48 78.67 69.91 76.95 71.22 75.64 69.91 78.39 55.07 79.35 54.32 81.13 56.48"/>
      <polygon class="b" points="85.32 70.88 79.84 70.88 78.1 72.45 79.23 73.72 84.86 73.72 86.02 72.3 85.32 70.88"/>
      <polygon class="b" points="88.77 71.03 87.58 72.16 88.28 73.72 93.5 73.72 95.39 72.16 94.37 70.88 88.77 71.03"/>
      <polygon class="c" points="96.55 73.4 94.93 74.36 92.23 88.03 94.39 90.35 95.39 89.36 98 74.68 96.55 73.4"/>
      <path class="b" d="M91.15,85.04l1.07-4.9-2.06-4.9s-.78-.81-1.13.67-.7,3.6-.7,3.6c0,0,2.44,5.72,2.81,5.54Z"/>
      <polygon class="c" points="84.31 76.77 86.45 73.96 87.58 76.54 85.5 87.33 82.33 87.33 84.31 76.77"/>
      <polygon class="c" points="82.91 75.17 77.89 81.62 76.79 87.04 77.46 87.33 82.33 80.48 82.91 75.17"/>
      <polygon class="b" points="76.65 73.4 74.67 74.77 71.74 89.71 72.44 90.15 75.22 87.68 77.92 74.36 76.65 73.4"/>
      <polygon class="c" points="73.28 91.48 76.33 88.55 90.72 88.81 93.07 91.07 92.58 91.97 73.72 91.97 73.28 91.48"/>
      <path class="c" d="M82.36,58.9l-1.07,4.9,2.06,4.9s.78.81,1.13-.67.7-3.6.7-3.6c0,0-2.44-5.72-2.81-5.54Z"/>
      <polygon class="c" points="89.21 67.78 87.06 70.6 85.93 68.02 88.02 57.22 91.18 57.22 89.21 67.78"/>
      <polygon class="b" points="90.6 69.57 95.62 63.13 96.72 57.71 96.06 57.42 91.18 64.26 90.6 69.57"/>
    </g>
    <g class="l">
      <g class="f">
        <path class="b" d="M66.13,56.1c-3.59-.11-14.36,0-14.36,0-.68-.05-2.91-3-2.23-2.96,0,0,19.23.04,19.46.15"/>
      </g>
      <path class="c" d="M66.86,56.94l2.15-1.72s1.56-.42,1.3.52-2.77,14.27-2.77,14.27l-1.99,1.52-1.2-.73,2.51-13.85Z"/>
      <polygon class="c" points="49.71 56.78 47.26 70.22 45.53 71.52 44.23 70.22 46.97 55.37 47.94 54.62 49.71 56.78"/>
      <polygon class="c" points="53.91 71.18 48.42 71.18 46.68 72.75 47.81 74.02 53.44 74.02 54.6 72.6 53.91 71.18"/>
      <polygon class="c" points="57.36 71.33 56.17 72.46 56.87 74.02 62.09 74.02 63.97 72.46 62.96 71.18 57.36 71.33"/>
      <polygon class="c" points="65.13 73.71 63.51 74.66 60.81 88.33 62.97 90.65 63.97 89.66 66.58 74.98 65.13 73.71"/>
      <path class="c" d="M59.74,85.34l1.07-4.9-2.06-4.9s-.78-.81-1.13.67-.7,3.6-.7,3.6c0,0,2.44,5.72,2.81,5.54Z"/>
      <polygon class="b" points="52.89 77.07 55.04 74.26 56.17 76.84 54.08 87.63 50.92 87.63 52.89 77.07"/>
      <polygon class="c" points="51.5 75.48 46.48 81.92 45.38 87.34 46.04 87.63 50.92 80.79 51.5 75.48"/>
      <polygon class="c" points="45.23 73.71 43.26 75.07 40.33 90.01 41.02 90.45 43.81 87.98 46.51 74.66 45.23 73.71"/>
      <polygon class="c" points="41.86 91.78 44.91 88.85 59.3 89.11 61.65 91.38 61.16 92.27 42.3 92.27 41.86 91.78"/>
      <path class="b" d="M50.95,59.2l-1.07,4.9,2.06,4.9s.78.81,1.13-.67.7-3.6.7-3.6c0,0-2.44-5.72-2.81-5.54Z"/>
      <polygon class="c" points="57.79 68.09 55.65 70.9 54.51 68.32 56.6 57.53 59.77 57.53 57.79 68.09"/>
      <polygon class="b" points="59.19 69.88 64.2 63.43 65.31 58.01 64.64 57.72 59.77 64.57 59.19 69.88"/>
    </g>
  </g>
</svg>